<svg width="232" height="255" viewBox="0 0 232 255" fill="none" xmlns="http://www.w3.org/2000/svg">
<path fill-rule="evenodd" clip-rule="evenodd" d="M173.961 180.981L173.538 180.988C173.339 180.991 173.14 180.995 172.941 180.998C173.283 180.992 173.619 180.987 173.961 180.981Z" fill="#FF7722"/>
<path fill-rule="evenodd" clip-rule="evenodd" d="M115.588 150.113C122.956 152.81 130.535 153.058 138.495 152.171C143.262 154.676 147.755 157.089 152.342 159.61C153.766 160.438 155.183 161.242 156.59 162.039C158.965 163.386 161.311 164.716 163.612 166.121C164.613 166.732 165.562 167.78 166.03 168.85C167.514 172.234 168.813 175.703 170.07 179.181C170.558 180.528 171.266 181.025 172.722 181.001C173.135 180.995 173.548 180.988 173.961 180.981L173.972 180.981C179.064 180.897 184.161 180.812 189.245 181.021C191.981 181.133 193.434 180.328 194.522 177.742C196.202 173.75 198.064 169.836 199.926 165.921C200.687 164.321 201.448 162.72 202.197 161.115C202.362 160.832 202.537 160.552 202.712 160.273C203.138 159.593 203.563 158.913 203.852 158.179C204.048 157.681 203.924 156.849 203.616 156.39C198.523 148.795 193.416 141.21 188.308 133.626L188.303 133.617C182.2 124.554 176.097 115.491 170.019 106.412L169.815 106.106C166.352 100.933 162.899 95.7735 158.173 91.388C159.114 89.7047 160.037 88.2827 161.08 86.7556C163.359 83.29 165.605 79.8524 167.851 76.4146C169.964 73.181 172.077 69.947 174.217 66.6896C174.855 65.7463 175.464 64.8291 176.072 63.9113C176.657 63.0306 177.243 62.1467 177.855 61.2411C179.669 58.5181 181.451 55.8178 183.224 53.1329C185.005 50.4349 186.781 47.7452 188.563 45.0705C188.86 44.6248 189.273 44.2567 189.687 43.8886C189.878 43.718 190.07 43.5475 190.25 43.3691C192.329 44.6217 194.417 45.8617 196.504 47.1017C201.146 49.8586 205.787 52.6156 210.341 55.5106C221.543 62.6323 227.545 72.9014 228.019 86.5055L228.15 158.798C228.164 159.945 228.189 161.093 228.214 162.24C228.398 170.74 228.582 179.217 224.461 187.212C220.625 194.653 214.98 200.101 207.837 204.331C193.752 212.673 179.712 221.092 165.672 229.51L165.653 229.522C159.052 233.48 152.452 237.437 145.846 241.387C145.17 241.792 144.415 242.066 143.545 242.382L143.467 242.411C141.809 240.057 140.208 237.687 138.614 235.327C136.561 232.288 134.519 229.264 132.379 226.312C127.109 219.043 121.775 211.805 116.141 204.819C112.707 200.562 111.359 195.648 110.166 190.568C108.562 183.737 108.369 176.81 108.874 169.486C109.999 162.383 112.263 156.062 115.588 150.113Z" fill="#FF7722"/>
<path d="M135.76 73.5046C131.272 73.7964 126.785 74.0883 121.925 74.4044C123.229 64.3144 124.499 54.4892 125.851 44.037C124.924 44.8134 124.33 45.265 123.787 45.7722C115.59 53.436 107.92 61.6284 102.885 71.7259C100.929 75.648 98.5658 76.6435 94.59 77.1236C77.3905 79.2003 60.2355 81.6515 43.08 84.0773C41.8855 84.2462 40.5771 85.0923 39.73 86.0039C33.259 92.9677 26.8742 100.012 20.5033 107.069C19.4515 108.233 18.5989 109.579 17.4928 111.08C17.8274 111.453 18.365 111.783 18.8136 111.689C27.7753 109.805 36.7129 107.805 45.6861 105.979C49.9359 105.115 54.2497 104.565 58.5344 103.873C54.4958 106.887 50.4326 109.87 46.4231 112.922C32.3699 123.622 19.0097 135.114 6.74099 147.849C6.43 148.172 6.05263 148.43 5.56586 148.781C5.40524 141.666 5.37229 134.489 5.36747 127.312C5.35854 114.013 5.18711 100.711 5.41613 87.4163C5.65364 73.6278 11.7073 62.6995 23.4165 55.5258C48.1159 40.3934 72.9244 25.4306 97.926 10.8058C110.008 3.73865 122.895 3.70068 135.104 10.5158C149.456 18.5267 163.385 27.2964 177.601 35.9642C177.322 36.6322 176.981 37.1184 176.552 37.5066C173.846 39.9529 171.12 42.3773 168.266 44.8627C164.956 47.7382 161.781 50.56 158.466 53.4571C154.911 56.5727 151.496 59.6128 147.952 62.7219C143.803 66.3621 139.781 69.9333 135.76 73.5046Z" fill="#FF7722"/>
<path d="M11.9833 191.053C10.5771 188.634 8.90225 186.328 7.82584 183.769C6.09486 179.655 5.27926 175.31 5.36285 170.773C5.49489 163.606 5.39951 156.435 5.5533 148.992C6.05263 148.43 6.43 148.172 6.74099 147.849C19.0097 135.114 32.3699 123.622 46.4231 112.922C50.4326 109.87 54.4958 106.887 58.7018 103.845C60.5878 103.288 62.3715 102.91 64.0143 102.203C73.2183 98.2446 82.3673 94.1579 91.581 90.2226C94.8134 88.8419 98.176 87.7668 101.479 86.5522C100.853 86.2497 100.319 86.2185 99.8065 86.3077C90.4759 87.9307 81.1157 89.4057 71.8263 91.2399C56.9901 94.1692 42.6419 98.6606 29.072 105.458C25.2402 107.377 21.3838 109.247 17.5965 110.99C18.5989 109.579 19.4515 108.234 20.5033 107.069C26.8742 100.012 33.259 92.9678 39.73 86.004C40.5771 85.0924 41.8855 84.2463 43.08 84.0774C60.2355 81.6516 77.3905 79.2004 94.59 77.1237C98.5658 76.6437 100.929 75.6481 102.885 71.726C107.92 61.6285 115.59 53.4361 123.787 45.7723C124.33 45.2651 124.924 44.8135 125.851 44.0371C124.499 54.4893 123.229 64.3145 121.925 74.4045C126.785 74.0884 131.272 73.7965 135.858 73.635C140.803 77.7628 145.624 81.7936 150.509 85.7437C152.939 87.7084 155.488 89.5251 158.069 91.529C162.991 95.8598 166.487 101.136 170.019 106.412C181.186 123.092 192.435 139.718 203.616 156.39C203.924 156.849 204.048 157.681 203.852 158.179C203.444 159.215 202.765 160.143 201.977 161.103C197.682 161.087 193.607 161.124 189.534 161.042C188.703 161.025 187.663 160.799 187.087 160.269C180.164 153.898 173.284 147.478 166.445 141.015C162.008 136.822 157.659 132.535 153.26 128.301C152.959 128.011 152.57 127.813 152.069 127.467C151.17 129.553 150.347 131.462 149.465 133.522C146.671 140.3 143.23 146.509 138.402 152.042C130.535 153.058 122.956 152.81 115.481 150.002C100.951 143.24 95.5836 130.817 94.1573 115.843C93.7513 116.147 93.569 116.21 93.5307 116.322C88.0286 132.428 88.5133 147.848 99.4797 161.679C101.931 164.771 105.612 166.885 108.763 169.646C108.369 176.81 108.562 183.737 110.166 190.568C111.359 195.648 112.707 200.562 116.141 204.819C121.775 211.805 127.109 219.043 132.379 226.312C136.181 231.557 139.674 237.027 143.305 242.396C138.68 246.187 133.635 249.293 127.855 250.896C116.095 254.156 105.19 252.173 94.7741 245.763C78.0977 235.5 61.2069 225.586 44.4093 215.521C43.6992 215.095 43.0153 214.626 42.2186 213.865C39.9736 204.447 40.2845 195.283 41.655 186.134C44.6543 166.113 51.8598 147.564 61.5172 129.889C62.6235 127.864 63.6474 125.794 64.7095 123.746C64.022 123.693 63.6958 123.871 63.4659 124.133C58.5555 129.747 53.4571 135.21 48.7981 141.026C40.5111 151.371 32.3407 161.819 24.4188 172.445C19.9663 178.418 16.1089 184.836 11.9833 191.053ZM147.519 104.325C143.756 103.411 139.994 102.496 135.597 101.427C137.627 105.626 139.344 109.27 141.176 112.854C141.422 113.336 142.23 113.736 142.82 113.803C146.249 114.189 149.691 114.46 153.127 114.781C154.564 114.915 155.998 115.078 158.042 115.291C155.065 111.568 152.54 108.333 149.904 105.193C149.488 104.698 148.568 104.628 147.519 104.325Z" fill="#50A890"/>
<path d="M168.401 44.809C171.12 42.3773 173.846 39.9529 176.552 37.5067C176.981 37.1185 177.322 36.6322 177.748 36.0387C178.727 35.2621 179.669 34.6475 180.596 34.0107C181.245 33.5652 181.873 33.0894 182.788 32.7384C185.787 35.3764 188.508 37.9032 191.229 40.4299C190.918 41.309 190.607 42.188 190.273 43.2181C189.682 43.9322 188.998 44.4182 188.563 45.0705C185.005 50.4094 181.493 55.7794 177.768 61.0997C174.512 55.6427 171.457 50.2258 168.401 44.809Z" fill="#50A890"/>
<path d="M189.811 26.6824C191.109 25.369 192.335 23.9747 193.716 22.7558C200.986 16.3385 208.295 9.96458 215.597 3.58346C215.753 3.4471 215.991 3.40512 216.841 3.03979C210.559 12.3154 204.622 21.082 198.373 29.8926C195.311 28.8519 192.561 27.7671 189.811 26.6824Z" fill="#50A890"/>
<path d="M201.977 161.103C199.617 166.648 196.888 172.119 194.522 177.742C193.434 180.328 191.981 181.133 189.245 181.021C183.746 180.795 178.229 180.912 172.722 181.001C171.266 181.025 170.558 180.528 170.07 179.181C168.813 175.703 167.514 172.234 166.03 168.85C165.562 167.78 164.613 166.732 163.612 166.121C159.949 163.884 156.171 161.837 152.348 159.413C149.673 151.335 148.773 143.402 149.929 135.256C150.014 134.659 149.669 134.001 149.524 133.371C150.347 131.462 151.17 129.553 152.069 127.467C152.57 127.813 152.959 128.011 153.26 128.301C157.659 132.535 162.008 136.822 166.445 141.015C173.284 147.478 180.164 153.898 187.087 160.269C187.663 160.799 188.703 161.025 189.534 161.042C193.607 161.124 197.682 161.087 201.977 161.103Z" fill="#50A890"/>
<path d="M161.08 86.7556C159.245 83.8572 157.452 80.8946 155.831 77.8406C153.217 72.9138 150.715 67.9268 148.123 62.8091C151.496 59.6128 154.911 56.5727 158.615 53.5143C159.27 53.7501 159.666 53.9699 159.997 54.2634C164.704 58.4331 169.402 62.6128 174.103 66.79C169.802 73.4101 165.502 80.0303 161.08 86.7556Z" fill="#50A890"/>
<path d="M11.9846 191.227C16.1089 184.836 19.9663 178.418 24.4188 172.445C32.3407 161.818 40.5111 151.371 48.7981 141.026C53.4571 135.21 58.5555 129.747 63.4659 124.133C63.6957 123.871 64.022 123.692 64.7095 123.745C63.6474 125.794 62.6235 127.864 61.5172 129.889C51.8598 147.564 44.6543 166.113 41.655 186.134C40.2845 195.283 39.9736 204.447 42.128 213.752C36.3249 210.492 30.5413 206.98 24.6885 203.588C20.2603 201.022 16.4792 197.757 13.3853 193.693C12.8461 192.985 12.4487 192.168 11.9846 191.227Z" fill="#108880"/>
<path d="M189.656 26.7133C192.561 27.7672 195.311 28.8519 198.224 29.9455C196.095 33.4039 193.803 36.8533 191.37 40.3663C188.508 37.9032 185.787 35.3764 182.938 32.7448C185.041 30.6747 187.271 28.7094 189.656 26.7133Z" fill="#108880"/>
<path d="M115.481 150.002C112.263 156.062 109.999 162.383 108.839 169.288C105.612 166.884 101.931 164.771 99.4797 161.679C88.5133 147.848 88.0286 132.428 93.5307 116.322C93.569 116.21 93.7513 116.147 94.1573 115.843C95.5836 130.817 100.951 143.24 115.481 150.002Z" fill="#108880"/>
<path d="M58.7018 103.845C54.2497 104.565 49.9359 105.115 45.6861 105.979C36.713 107.805 27.7753 109.805 18.8136 111.689C18.365 111.783 17.8274 111.453 17.435 111.23C21.3838 109.247 25.2402 107.377 29.072 105.458C42.6419 98.6605 56.9901 94.1692 71.8263 91.2399C81.1157 89.4057 90.4759 87.9307 99.8065 86.3077C100.319 86.2185 100.853 86.2496 101.479 86.5522C98.176 87.7668 94.8135 88.8419 91.581 90.2226C82.3673 94.1579 73.2183 98.2446 64.0144 102.203C62.3715 102.91 60.5878 103.288 58.7018 103.845Z" fill="#108880"/>
<path d="M135.858 73.635C139.781 69.9334 143.803 66.3622 147.995 62.8782C150.715 67.9269 153.217 72.9139 155.831 77.8407C157.452 80.8946 159.245 83.8572 160.96 86.8608C160.037 88.2828 159.114 89.7048 158.087 91.2677C155.488 89.5251 152.939 87.7084 150.509 85.7437C145.624 81.7936 140.803 77.7628 135.858 73.635Z" fill="#108880"/>
<path d="M147.7 104.344C148.568 104.628 149.488 104.698 149.904 105.192C152.54 108.333 155.065 111.568 158.042 115.291C155.998 115.078 154.564 114.915 153.127 114.781C149.691 114.459 146.249 114.189 142.82 113.803C142.23 113.736 141.422 113.336 141.176 112.854C139.343 109.27 137.627 105.626 135.597 101.427C139.994 102.496 143.756 103.411 147.7 104.344Z" fill="#108880"/>
<path d="M149.465 133.521C149.669 134.001 150.014 134.659 149.929 135.256C148.773 143.402 149.673 151.335 152.254 159.304C147.755 157.089 143.262 154.676 138.677 152.134C143.23 146.509 146.671 140.3 149.465 133.521Z" fill="#108880"/>
<path d="M174.217 66.6897C169.402 62.6128 164.704 58.4332 159.997 54.2635C159.666 53.97 159.27 53.7501 158.755 53.4389C161.781 50.5601 164.956 47.7383 168.266 44.8628C171.457 50.2259 174.512 55.6428 177.655 61.201C176.605 63.0913 175.468 64.8403 174.217 66.6897Z" fill="#108880"/>
</svg>
