<svg width="255" height="255" viewBox="0 0 255 255" fill="none" xmlns="http://www.w3.org/2000/svg">
<path fill-rule="evenodd" clip-rule="evenodd" d="M184.664 180.941L184.241 180.948C184.042 180.951 183.842 180.955 183.643 180.958C183.985 180.952 184.322 180.947 184.664 180.941Z" fill="#FF7722"/>
<path fill-rule="evenodd" clip-rule="evenodd" d="M126.291 150.073C133.658 152.77 141.237 153.018 149.197 152.132C153.964 154.636 158.457 157.049 163.044 159.57C164.468 160.398 165.886 161.202 167.293 162C169.668 163.346 172.014 164.677 174.314 166.081C175.315 166.692 176.264 167.74 176.733 168.81C178.217 172.194 179.515 175.664 180.773 179.141C181.26 180.488 181.969 180.985 183.425 180.962C183.838 180.955 184.251 180.948 184.664 180.941L184.674 180.941C189.766 180.857 194.864 180.773 199.947 180.981C202.683 181.094 204.136 180.288 205.224 177.702C206.904 173.711 208.766 169.796 210.628 165.881C211.39 164.281 212.151 162.681 212.899 161.075C213.065 160.792 213.24 160.512 213.415 160.233C213.84 159.553 214.266 158.873 214.554 158.14C214.75 157.641 214.626 156.809 214.318 156.35C209.225 148.755 204.118 141.171 199.011 133.586L199.005 133.578C192.903 124.514 186.8 115.451 180.722 106.372L180.517 106.067C177.055 100.893 173.601 95.7337 168.875 91.3482C169.817 89.6649 170.74 88.2429 171.783 86.7158C174.061 83.2502 176.307 79.8126 178.554 76.3749C180.667 73.1412 182.78 69.9072 184.919 66.6498C185.558 65.7065 186.166 64.7893 186.775 63.8715C187.359 62.9908 187.945 62.1069 188.557 61.2013C190.371 58.4783 192.154 55.778 193.926 53.0931C195.707 50.3951 197.483 47.7054 199.266 45.0307C199.563 44.585 199.976 44.2169 200.389 43.8488C200.581 43.6783 200.772 43.5077 200.952 43.3293C203.032 44.5819 205.119 45.8219 207.207 47.0619C211.848 49.8188 216.49 52.5758 221.043 55.4708C232.245 62.5925 238.248 72.8616 238.721 86.4658L238.852 158.758C238.866 159.905 238.891 161.053 238.916 162.201C239.101 170.7 239.284 179.178 235.163 187.172C231.328 194.613 225.682 200.061 218.54 204.292C204.455 212.634 190.415 221.052 176.375 229.47L176.355 229.482C169.755 233.44 163.154 237.398 156.549 241.347C155.872 241.752 155.118 242.026 154.248 242.342L154.169 242.371C152.511 240.017 150.911 237.647 149.316 235.287C147.264 232.248 145.221 229.224 143.081 226.272C137.811 219.003 132.478 211.765 126.844 204.78C123.41 200.522 122.062 195.608 120.869 190.528C119.265 183.697 119.071 176.77 119.577 169.446C120.702 162.343 122.965 156.022 126.291 150.073Z" fill="#FF7722"/>
<path d="M146.463 73.4648C141.975 73.7566 137.487 74.0485 132.627 74.3646C133.932 64.2746 135.202 54.4494 136.553 43.9972C135.626 44.7736 135.032 45.2252 134.49 45.7324C126.293 53.3962 118.623 61.5886 113.587 71.6861C111.632 75.6082 109.268 76.6037 105.293 77.0838C88.093 79.1605 70.938 81.6117 53.7825 84.0375C52.588 84.2064 51.2796 85.0525 50.4325 85.9641C43.9615 92.9279 37.5767 99.9724 31.2058 107.029C30.154 108.194 29.3014 109.539 28.1953 111.04C28.5299 111.413 29.0675 111.743 29.5161 111.649C38.4778 109.765 47.4155 107.765 56.3887 105.94C60.6385 105.075 64.9522 104.525 69.2369 103.833C65.1983 106.848 61.1351 109.83 57.1256 112.883C43.0724 123.582 29.7122 135.074 17.4435 147.809C17.1325 148.132 16.7551 148.39 16.2684 148.741C16.1078 141.626 16.0748 134.45 16.07 127.273C16.0611 113.974 15.8896 100.672 16.1186 87.3765C16.3562 73.588 22.4098 62.6597 34.119 55.486C58.8184 40.3536 83.6269 25.3908 108.629 10.766C120.71 3.69886 133.598 3.66089 145.807 10.476C160.159 18.487 174.088 27.2566 188.303 35.9244C188.024 36.5924 187.684 37.0786 187.254 37.4669C184.548 39.9131 181.823 42.3375 178.969 44.8229C175.659 47.6984 172.484 50.5202 169.169 53.4173C165.613 56.5329 162.198 59.573 158.655 62.6821C154.505 66.3223 150.484 69.8935 146.463 73.4648Z" fill="#FF7722"/>
<path d="M22.6859 191.013C21.2796 188.594 19.6048 186.288 18.5284 183.729C16.7974 179.615 15.9818 175.27 16.0654 170.733C16.1974 163.566 16.102 156.395 16.2558 148.953C16.7551 148.391 17.1325 148.132 17.4435 147.809C29.7122 135.075 43.0724 123.582 57.1256 112.883C61.1351 109.83 65.1983 106.848 69.4043 103.806C71.2903 103.248 73.074 102.87 74.7169 102.163C83.9208 98.2048 93.0698 94.1181 102.284 90.1828C105.516 88.8022 108.879 87.727 112.182 86.5124C111.555 86.2099 111.022 86.1787 110.509 86.2679C101.178 87.8909 91.8182 89.3659 82.5288 91.2001C67.6926 94.1294 53.3444 98.6208 39.7745 105.418C35.9427 107.338 32.0863 109.208 28.299 110.951C29.3014 109.539 30.154 108.194 31.2058 107.029C37.5767 99.9726 43.9615 92.928 50.4325 85.9642C51.2796 85.0526 52.588 84.2065 53.7825 84.0376C70.938 81.6118 88.093 79.1606 105.293 77.0839C109.268 76.6039 111.632 75.6083 113.587 71.6862C118.623 61.5887 126.293 53.3963 134.49 45.7325C135.032 45.2253 135.626 44.7737 136.553 43.9973C135.202 54.4495 133.932 64.2747 132.627 74.3647C137.487 74.0486 141.975 73.7567 146.56 73.5952C151.506 77.723 156.326 81.7538 161.212 85.7039C163.642 87.6686 166.191 89.4853 168.771 91.4892C173.694 95.82 177.19 101.097 180.722 106.372C191.889 123.052 203.138 139.678 214.318 156.35C214.626 156.809 214.75 157.641 214.554 158.14C214.147 159.175 213.467 160.103 212.679 161.064C208.385 161.047 204.309 161.084 200.236 161.002C199.405 160.985 198.366 160.759 197.79 160.229C190.866 153.858 183.987 147.438 177.148 140.975C172.711 136.782 168.362 132.495 163.963 128.261C163.661 127.971 163.272 127.773 162.772 127.427C161.873 129.513 161.05 131.422 160.167 133.482C157.374 140.261 153.933 146.469 149.105 152.002C141.237 153.018 133.658 152.77 126.184 149.962C111.654 143.2 106.286 130.777 104.86 115.804C104.454 116.107 104.272 116.17 104.233 116.282C98.7311 132.388 99.2158 147.808 110.182 161.64C112.633 164.731 116.315 166.845 119.465 169.606C119.071 176.77 119.265 183.698 120.869 190.528C122.062 195.609 123.41 200.522 126.844 204.78C132.478 211.766 137.811 219.003 143.081 226.272C146.883 231.517 150.376 236.987 154.007 242.356C149.382 246.148 144.338 249.253 138.558 250.856C126.798 254.117 115.892 252.133 105.477 245.723C88.8002 235.46 71.9094 225.547 55.1118 215.481C54.4017 215.055 53.7178 214.586 52.9211 213.825C50.6761 204.408 50.987 195.244 52.3576 186.095C55.3568 166.073 62.5623 147.524 72.2197 129.849C73.326 127.825 74.3499 125.755 75.412 123.706C74.7246 123.653 74.3983 123.831 74.1684 124.094C69.2581 129.707 64.1596 135.17 59.5006 140.987C51.2136 151.332 43.0432 161.779 35.1213 172.405C30.6688 178.378 26.8114 184.796 22.6859 191.013ZM158.221 104.286C154.459 103.371 150.696 102.456 146.3 101.388C148.33 105.587 150.046 109.23 151.878 112.815C152.125 113.297 152.933 113.696 153.522 113.763C156.951 114.15 160.393 114.42 163.83 114.741C165.266 114.875 166.7 115.038 168.745 115.252C165.767 111.528 163.243 108.293 160.606 105.153C160.191 104.658 159.27 104.588 158.221 104.286Z" fill="#50A890"/>
<path d="M179.104 44.7692C181.823 42.3375 184.548 39.9131 187.254 37.4669C187.683 37.0787 188.024 36.5924 188.45 35.9989C189.43 35.2223 190.372 34.6077 191.299 33.9709C191.948 33.5254 192.575 33.0496 193.491 32.6986C196.489 35.3367 199.21 37.8634 201.931 40.3901C201.621 41.2692 201.31 42.1482 200.976 43.1783C200.384 43.8924 199.7 44.3784 199.266 45.0307C195.708 50.3696 192.196 55.7396 188.47 61.0599C185.215 55.6029 182.159 50.186 179.104 44.7692Z" fill="#50A890"/>
<path d="M200.514 26.6426C201.811 25.3292 203.038 23.9349 204.419 22.716C211.689 16.2987 218.997 9.92479 226.3 3.54367C226.456 3.40731 226.694 3.36532 227.543 3C221.261 12.2756 215.324 21.0422 209.075 29.8528C206.014 28.8121 203.264 27.7274 200.514 26.6426Z" fill="#50A890"/>
<path d="M212.679 161.064C210.319 166.608 207.591 172.079 205.224 177.702C204.136 180.288 202.683 181.094 199.947 180.981C194.448 180.756 188.932 180.873 183.425 180.961C181.969 180.985 181.26 180.488 180.773 179.141C179.515 175.664 178.217 172.194 176.733 168.81C176.264 167.74 175.315 166.692 174.314 166.081C170.651 163.845 166.873 161.797 163.051 159.373C160.376 151.295 159.476 143.362 160.632 135.216C160.716 134.619 160.372 133.961 160.227 133.331C161.05 131.422 161.873 129.513 162.772 127.427C163.272 127.773 163.661 127.971 163.963 128.261C168.362 132.495 172.711 136.782 177.148 140.975C183.987 147.438 190.866 153.858 197.79 160.229C198.366 160.759 199.405 160.985 200.236 161.002C204.309 161.084 208.385 161.047 212.679 161.064Z" fill="#50A890"/>
<path d="M171.783 86.7158C169.947 83.8174 168.155 80.8548 166.534 77.8008C163.919 72.874 161.418 67.8871 158.826 62.7693C162.198 59.573 165.613 56.5329 169.317 53.4745C169.972 53.7103 170.369 53.9301 170.7 54.2236C175.407 58.3933 180.105 62.573 184.805 66.7502C180.505 73.3703 176.204 79.9905 171.783 86.7158Z" fill="#50A890"/>
<path d="M22.6871 191.187C26.8114 184.796 30.6688 178.378 35.1213 172.405C43.0432 161.779 51.2136 151.332 59.5006 140.986C64.1596 135.17 69.2581 129.707 74.1684 124.094C74.3983 123.831 74.7245 123.653 75.412 123.706C74.3499 125.755 73.326 127.824 72.2197 129.849C62.5623 147.524 55.3568 166.073 52.3576 186.094C50.987 195.244 50.6761 204.408 52.8306 213.713C47.0274 210.452 41.2438 206.94 35.391 203.548C30.9628 200.982 27.1818 197.718 24.0878 193.653C23.5486 192.945 23.1512 192.128 22.6871 191.187Z" fill="#108880"/>
<path d="M200.358 26.6735C203.264 27.7274 206.014 28.8121 208.927 29.9057C206.798 33.3641 204.506 36.8135 202.073 40.3266C199.21 37.8634 196.489 35.3367 193.641 32.705C195.743 30.6349 197.973 28.6696 200.358 26.6735Z" fill="#108880"/>
<path d="M126.184 149.962C122.965 156.022 120.702 162.343 119.541 169.249C116.315 166.845 112.633 164.731 110.182 161.64C99.2158 147.808 98.7311 132.388 104.233 116.282C104.272 116.17 104.454 116.107 104.86 115.803C106.286 130.777 111.654 143.2 126.184 149.962Z" fill="#108880"/>
<path d="M69.4043 103.806C64.9522 104.525 60.6385 105.075 56.3887 105.94C47.4155 107.765 38.4778 109.765 29.5161 111.649C29.0675 111.743 28.5299 111.413 28.1375 111.19C32.0863 109.208 35.9427 107.338 39.7745 105.418C53.3445 98.6207 67.6926 94.1294 82.5289 91.2001C91.8182 89.3659 101.178 87.8909 110.509 86.2679C111.022 86.1787 111.555 86.2098 112.182 86.5124C108.879 87.727 105.516 88.8021 102.284 90.1828C93.0699 94.1181 83.9208 98.2048 74.7169 102.163C73.074 102.87 71.2903 103.248 69.4043 103.806Z" fill="#108880"/>
<path d="M146.56 73.5952C150.484 69.8936 154.505 66.3224 158.697 62.8384C161.418 67.8871 163.919 72.8741 166.534 77.8009C168.155 80.8548 169.947 83.8174 171.662 86.821C170.74 88.243 169.817 89.665 168.79 91.2279C166.191 89.4853 163.642 87.6686 161.212 85.7039C156.326 81.7538 151.506 77.723 146.56 73.5952Z" fill="#108880"/>
<path d="M158.402 104.304C159.27 104.588 160.191 104.658 160.606 105.153C163.243 108.293 165.767 111.528 168.745 115.251C166.7 115.038 165.266 114.875 163.83 114.741C160.393 114.42 156.951 114.15 153.522 113.763C152.933 113.696 152.125 113.297 151.878 112.815C150.046 109.23 148.33 105.587 146.3 101.388C150.696 102.456 154.459 103.371 158.402 104.304Z" fill="#108880"/>
<path d="M160.167 133.482C160.372 133.961 160.716 134.619 160.632 135.216C159.476 143.362 160.376 151.295 162.956 159.265C158.457 157.049 153.964 154.636 149.379 152.095C153.933 146.469 157.374 140.26 160.167 133.482Z" fill="#108880"/>
<path d="M184.919 66.6499C180.105 62.573 175.407 58.3934 170.7 54.2237C170.369 53.9302 169.972 53.7103 169.457 53.3991C172.484 50.5203 175.659 47.6985 178.969 44.823C182.159 50.1861 185.215 55.603 188.357 61.1612C187.307 63.0515 186.171 64.8005 184.919 66.6499Z" fill="#108880"/>
</svg>
